<svg xmlns="http://www.w3.org/2000/svg" width="147" height="113" viewBox="0 0 147 113">
    <path
            d="M6.1,85.9l-0.3-.027c-1.7-.179-3.3-0.3-3.3-1.6,0-1.6,2.3-1.9,3.6-1.9a11.5,11.5,0,0,1,4.4.91l0.2,0.1,0.9-2.1-0.2-.072a13.8,13.8,0,0,0-5.3-1.1c-3.6,0-6.0,1.7-6.0,4.1,0,3.1,3.1,3.5,5.6,3.7l0.2,0.0c2.2,0.2,3.7.491,3.7,1.9,0,1.1-1.5,1.8-3.8,1.8a11.0,11.0,0,0,1-4.9-1.1l-0.2-.084-1.0,2.1,0.2,0.1a12.9,12.9,0,0,0,5.9,1.4c3.6,0,6.2-1.7,6.2-4.2,0-3.5-3.8-3.9-6.0-4.1m22.8-.633a2.4,2.4,0,0,1-2.4,2.4h-3.7V82.7h3.7a2.5,2.5,0,0,1,2.4,2.5m-2.4-4.8H21.7a1.2,1.2,0,0,0-1.2,1.2v12.3h2.3v-3.9h3.7a4.7,4.7,0,0,0,4.8-4.7,4.8,4.8,0,0,0-4.8-4.8M38.5,81.6V92.7a1.2,1.2,0,0,0,1.2,1.2h9.2v-2.3h-8.1v-3.3h7.6V86h-7.6V82.7h8.1V80.4h-9.2a1.2,1.2,0,0,0-1.2,1.2m28.0,8.3a4.4,4.4,0,0,1-3.7,1.9,4.7,4.7,0,0,1-4.6-4.7,4.6,4.6,0,0,1,4.6-4.6,4.5,4.5,0,0,1,3.5,1.7l0.1,0.1,1.7-1.5-0.1-.138a6.9,6.9,0,0,0-12.1,4.5,7.0,7.0,0,0,0,6.9,7.0,6.7,6.7,0,0,0,5.6-2.8l0.1-.144-1.8-1.4Zm8.1-7.2h4.6V93.9h2.3V82.7h4.6V80.4h-11.5v2.3Zm27.6,2.3a2.1,2.1,0,0,1-2.2,2.1h-4.3V82.7h4.3a2.2,2.2,0,0,1,2.2,2.3m2.3,0a4.5,4.5,0,0,0-4.5-4.6h-5.3a1.2,1.2,0,0,0-1.2,1.2v12.3h2.3v-4.6h3.1l3.2,4.6h2.7l-3.4-4.8a4.3,4.3,0,0,0,3.1-4.1m17.7,3.1a3.6,3.6,0,0,1-7.2,0v-7.7h-2.3v7.7a5.9,5.9,0,1,0,11.8,0v-7.7h-2.3v7.7Zm22.7-7.9a1.2,1.2,0,0,0-.93.5l-4.5,6.4-4.5-6.4a1.2,1.2,0,0,0-.92-0.4,1.2,1.2,0,0,0-1.2,1.2V93.9h2.3V84.6l4.3,6.2,4.3-6.2v9.2h2.3V81.4a1.2,1.2,0,0,0-1.2-1.2M35.3,105.5h3.1v7.2h1.6v-7.2H43.1V104H35.3v1.5Zm18.3,2.8a3.1,3.1,0,0,1-6.2,0,2.9,2.9,0,0,1,.8-2.1,3.2,3.2,0,0,1,4.5,0,2.9,2.9,0,0,1,.84,2.1h0Zm-3.1-4.5a4.5,4.5,0,0,0-4.7,4.5,4.7,4.7,0,1,0,4.7-4.5m12.7,7.4h-3.2V109.1h3.2a1.1,1.1,0,0,1,1.1,1.0,1.1,1.1,0,0,1-1.1,1.1m-3.2-5.7h2.9a1.1,1.1,0,1,1,0,2.1h-2.9v-2.1Zm4.8,2.7a2.1,2.1,0,0,0,.783-1.7A2.6,2.6,0,0,0,62.9,104h-3.6a0.8,0.8,0,0,0-.829.8V111.9a0.8,0.8,0,0,0,.829.8h3.9a2.6,2.6,0,0,0,2.7-2.6,2.1,2.1,0,0,0-1.1-1.9m7.2,1.0,1.2-2.6,1.1,2.6h-2.3Zm1.2-5.3a0.8,0.8,0,0,0-.7.5l-3.7,8.4h1.7l0.9-2.1h3.5l0.9,2.0,0.0,0.1h1.7l-3.7-8.4a0.8,0.8,0,0,0-.7-0.5m14.0,6.2a3.2,3.2,0,0,1-5.6-1.8,3.0,3.0,0,0,1,3.1-3.0,3.1,3.1,0,0,1,2.4,1.1l0.1,0.1,1.2-1-0.1-.1a4.7,4.7,0,0,0-3.5-1.6,4.5,4.5,0,0,0-4.7,4.5,4.7,4.7,0,0,0,8.4,2.7l0.1-.1-1.2-1Zm10.8,0a3.2,3.2,0,0,1-5.6-1.8,3.0,3.0,0,0,1,3.1-3.0,3.1,3.1,0,0,1,2.4,1.1l0.1,0.1,1.2-1-0.1-.1a4.7,4.7,0,0,0-3.5-1.6,4.5,4.5,0,0,0-4.7,4.5,4.7,4.7,0,0,0,8.4,2.7l0.1-.1L98,110Zm11.2-1.8a3.1,3.1,0,0,1-6.2,0,2.9,2.9,0,0,1,.8-2.1,3.2,3.2,0,0,1,4.5,0,2.9,2.9,0,0,1,.84,2.1h0Zm-3.1-4.5a4.5,4.5,0,0,0-4.7,4.5,4.7,4.7,0,1,0,4.7-4.5"/>
    <path fill="#0065a7" d="M53.2,59.5l24.3-4.2,11.9-10.9-19.4-14.2-9.3,12.7Z"/>
    <path fill="#0678ac" d="M60.9,42.7l16.7,12.1L89.3,44.1Z"/>
    <path fill="#2eb56a" d="M88.7,44.8l7.5-19.8-26.7,5.4Z"/>
    <path fill="#a5ce40" d="M69.5,30.6l26.7-5.2-18.9-4.3Z"/>
    <path fill="#f5e431" d="M77.3,21.3l19.0,4.5,1.6-25.8Z"/>
    <path fill="#9072b3" d="M48.9,39.6l4.6,20.6L60.9,43.5Z"/>
    <path fill="#9360a8" d="M69.4,31.1l-20.6,9.1,11.3,3.8Z"/>
    <path fill="#df599c" d="M55,23.2l-6.2,17.2,21.5-9.2Z"/>
    <path fill="#f89a29" d="M54.8,23.3l15.3,7.8,7.9-9.8-6.3-10.8Z"/>
    <path fill="#fcbc1b" d="M71.2,10.9l6.2,10.7L97.9,0.9Z"/>
    <path fill="#f16165" d="M54,23.8l15.3,7.6,7.9-9.5Z"/>
    <path fill="#1da6ba" d="M70,30l-9.2,13.1,28.4,1.5Z"/>
</svg>
